<svg xmlns="http://www.w3.org/2000/svg" viewBox="0 0 100 21" width="150" height="32" aria-hidden="true">
  <path fill="currentColor" d="M2.1 12.55a2.1 2.1 0 110 4.2 2.1 2.1 0 010-4.2M2.1 6.28a2.1 2.1 0 110 4.2 2.1 2.1 0 010-4.2M2.1.47a1.63 1.63 0 110 3.27 1.63 1.63 0 010-3.27zm0-.47a2.1 2.1 0 10.01 4.2 2.1 2.1 0 000-4.2M8.15 12.55a2.1 2.1 0 110 4.2 2.1 2.1 0 010-4.2M8.15 6.28a2.1 2.1 0 110 4.2 2.1 2.1 0 010-4.2M8.15 0a2.1 2.1 0 110 4.2 2.1 2.1 0 010-4.2M14.2 12.55a2.1 2.1 0 110 4.2 2.1 2.1 0 010-4.2M14.2 6.75a1.63 1.63 0 110 3.26 1.63 1.63 0 010-3.26zm0-.47a2.1 2.1 0 100 4.2 2.1 2.1 0 000-4.2M14.2 0a2.1 2.1 0 110 4.2 2.1 2.1 0 010-4.2M20.24 12.55a2.1 2.1 0 110 4.2 2.1 2.1 0 010-4.2M20.24 6.28a2.1 2.1 0 110 4.2 2.1 2.1 0 010-4.2M20.24 0a2.1 2.1 0 110 4.2 2.1 2.1 0 010-4.2M25.13 16.72V.46a58.4 58.4 0 015.66-.21c2.02 0 3.42.36 4.18 1.08.76.72 1.14 2.07 1.14 4.05 0 2-.36 3.36-1.1 4.08-.73.72-2.04 1.08-3.94 1.08-1.2 0-2.39-.07-3.58-.21v6.39h-2.36zm2.36-8.2h3.25c1.14-.02 1.93-.24 2.36-.66.42-.43.63-1.25.63-2.48 0-1.22-.21-2.05-.63-2.48-.43-.42-1.21-.64-2.36-.63-1.57 0-2.66 0-3.25.02v6.23zM46.16 6.3c.83-.93 2.24-1.4 4.24-1.4s3.42.47 4.24 1.4c.83.93 1.24 2.49 1.24 4.69s-.41 3.75-1.24 4.67c-.82.9-2.23 1.36-4.24 1.36-2 0-3.41-.46-4.24-1.36-.82-.92-1.24-2.47-1.24-4.67 0-2.2.42-3.76 1.24-4.69zm6.69 1.42c-.44-.59-1.26-.88-2.45-.88-1.2 0-2.01.3-2.45.88-.44.57-.66 1.67-.66 3.27s.22 2.69.66 3.25c.44.58 1.26.87 2.45.87 1.2 0 2.01-.3 2.45-.87.44-.59.66-1.67.66-3.26 0-1.58-.22-2.67-.66-3.27M78.24 12.07h-5.16c.11 1.2.42 2 .93 2.4.5.41 1.35.62 2.5.62 1.36-.02 2.7-.12 4.04-.28l.21 1.5c-1.04.46-2.55.69-4.55.69-1.99 0-3.41-.46-4.27-1.37-.84-.91-1.27-2.47-1.26-4.69 0-2.21.41-3.77 1.24-4.69.82-.9 2.18-1.34 4.08-1.34 1.76 0 3.04.32 3.85.97.8.64 1.2 1.6 1.2 2.9 0 2.2-.94 3.3-2.8 3.3zm-5.17-1.76h4.57c.75 0 1.13-.51 1.13-1.53-.01-.71-.21-1.21-.6-1.5-.38-.3-1.06-.44-2.04-.44-1.13 0-1.92.25-2.35.72-.44.47-.68 1.4-.71 2.75M67.66 6.32c-.67-.94-1.72-1.4-3.15-1.41-1.5 0-2.87.6-4.1 1.81V.22h-2.29v15.95c1.73.59 3.55.87 5.37.83 1.94 0 3.29-.5 4.05-1.49.76-.99 1.14-2.52 1.14-4.58 0-2.12-.34-3.65-1.02-4.6zm-2 7.84c-.42.61-1.16.92-2.21.94-1.03 0-2.05-.11-3.04-.35V8.49a11.9 11.9 0 011.78-1.22c.46-.25.99-.38 1.52-.38 1.03 0 1.73.29 2.07.86.34.57.53 1.63.54 3.17.02 1.54-.23 2.62-.66 3.22M43.55 5a8.7 8.7 0 00-3.6 1.73V5.22h-2.29v11.5h2.29V8.37a13.69 13.69 0 013.6-1.27V5zM97.54 5.22l-2.82 8.36c-.16.52-.32 1-.48 1.41h-.27l-.17-.51c-.08-.3-.17-.6-.28-.9l-.61-1.78-.6-1.75-1.65-4.83h-2.45l2 5.35.9 2.39.3.83 1.55 4.17a4.47 4.47 0 01-1.9 1.68v1.84c2.04-.3 3.53-1.71 4.48-4.21L100 5.23l-2.46-.01zM86.14.25h-2.31v16.47h2.31V.25z"></path>
</svg>